<svg xmlns="http://www.w3.org/2000/svg" version="1.1" viewBox="0 0 500 500"><path d="m248.563 81.688 2.09.004c50.223.194 94.252 19.94 130.347 54.308l2.02 1.895c33.997 32.77 51.3 81.55 52.23 128.042-.508 25.586-4.936 51.952-16.25 75.063l-1.746 3.68c-9.144 19.022-20.774 35-35.254 50.32l-2.434 2.598C372.93 404.474 365.636 410.29 358 416l-2.625 1.969c-18.803 13.607-40.504 22.808-63 28.219l-1.951.47c-2.135.487-4.275.922-6.424 1.342l-2.698.544c-10.22 1.83-20.393 1.853-30.74 1.831h-2.825c-13.972-.032-27.171-.807-40.737-4.375-1.522-.356-3.044-.71-4.566-1.063-29.321-7.12-56.028-22.798-77.786-43.464a117.631 117.631 0 0 0-5.78-5.07C101.982 382.255 90.227 360.644 81 341l-1.212-2.49c-3.24-6.824-5.505-13.664-7.475-20.947l-.893-3.159c-13.217-47.907-5.3-98.51 18.797-141.579 4.61-7.836 10.087-15.058 15.717-22.18 2.126-2.653 2.126-2.653 4.066-5.645h2l.818-1.802c1.174-2.184 2.347-3.62 4.088-5.37l1.741-1.753 1.853-1.825 1.892-1.875C136.042 119 136.042 119 140 119v-2h3v-2a85.636 85.636 0 0 1 6-4.125l1.905-1.207c29.449-18.292 62.98-28.125 97.657-27.98Z" fill="#1D2627"/><path d="M363.776 129.468c3.53 3.054 6.887 6.27 10.224 9.532l2.348 2.195c6.634 6.342 12.172 13.47 17.652 20.805l1.236 1.642c5.995 8.038 10.594 16.384 14.853 25.43a413.3 413.3 0 0 0 2.638 5.448c2.839 5.895 5.065 11.59 6.628 17.945.597 2.347 1.327 4.57 2.145 6.847 12.092 35.448 7.835 82.402-7.688 116.125A999.425 999.425 0 0 1 411 341a410.031 410.031 0 0 0-1.813 4.375c-5.093 11.471-12.46 21.81-20.187 31.625l-2.273 2.965c-4.078 5.247-4.078 5.247-5.727 7.035h-2l-1 3h-1l-1-6 3-1-.875-2.3-1.125-3.013-1.125-2.988C375 372 375 372 375 369h3c-.344-2.473-.344-2.473-1-5l-2-1v-19h-8l-.148 3.691-.227 4.871c-.03.8-.062 1.6-.094 2.424-.244 4.978-.967 9.278-2.531 14.014-2.195-2.729-3.642-5.227-4.875-8.5a454.586 454.586 0 0 0-4.875-12.125l-1.297-3.102L352 343l-11-1-.148 2.29c-.765 11.253-1.804 22.48-2.852 33.71h-2c-3.08-4.119-4.175-8.608-5.438-13.5-.428-1.605-.857-3.209-1.289-4.813l-.641-2.394c-1.194-4.332-2.566-8.607-3.933-12.887C324 342 324 342 324 340h-10l-1.345 2.982c-1.649 3.652-3.3 7.302-4.954 10.952-.715 1.58-1.429 3.16-2.141 4.74a4166.063 4166.063 0 0 1-3.083 6.814l-.963 2.14c-1.347 2.963-2.704 5.658-4.514 8.372v-9h-17v-29h-9l.035 3.05c.085 11.017-.36 21.955-1.035 32.95h-1v-20h-2l-.332-2.3-.48-3.013-.458-2.988c-.793-2.933-1.306-3.929-3.73-5.699-4.758-2.675-9.992-2.445-15.313-2.625l-2.822-.117c-2.288-.094-4.576-.18-6.865-.258 1.312-1.5 1.312-1.5 3-3h3l1-2 2.16.105c5.075.144 9.227.237 13.856-2.132 2.631-1.29 5.354-2.225 8.109-3.223 9.013-3.445 17.379-7.652 24.875-13.75l3.187-1.688c7.16-3.947 13.225-10.422 18.813-16.312l1.64-1.727c4.063-4.433 7.172-9.017 10.098-14.27C328 277 328 277 330 276c.075-5.265.129-10.53.165-15.796.015-1.788.035-3.577.061-5.365.037-2.582.054-5.163.067-7.745.015-.79.03-1.58.047-2.394.003-9.172-3.597-17.66-9.903-24.36-4.34-3.93-9.246-6.68-14.437-9.34 3.938-1.313 5.02-.37 8.687 1.437 8.518 4.46 15.053 10.336 18.313 19.563l1 5 1-91h-17c-4.773-.84-4.773-.84-8.375-1.938-5.509-1.58-10.756-2.579-16.488-2.886C291 141 291 141 288 140c-9.722-1.076-19.48-1.16-29.25-1.125l-2.083.006c-29.036.092-55.673 2.611-83.917 9.502-2.894.65-5.824 1.13-8.75 1.617v24l10.988-.105c3.542-.024 7.083-.042 10.625-.06 2.447-.015 4.893-.035 7.34-.061 3.533-.037 7.065-.054 10.598-.067 1.08-.015 2.161-.03 3.275-.047 11.932-.002 23.007 2.774 31.99 11.004 7.74 8.496 10.784 19.112 10.496 30.496-1.054 9.586-3.387 18.834-10.312 25.84l-1.742 1.855c-8.729 8.494-18.476 10.673-30.267 10.622-2.58-.038-5.16-.1-7.741-.165a2366.21 2366.21 0 0 0-5.328-.068c-4.308-.054-8.615-.14-12.922-.244-1.688-3.375-1.142-7.199-1.133-10.91l-.003-2.675c0-1.867.001-3.734.006-5.6.005-2.87 0-5.738-.007-8.606 0-1.81.002-3.621.004-5.432l-.006-2.616c.024-6.046.024-6.046 1.139-7.161 1.623-.1 3.25-.13 4.875-.133l2.984-.004 3.141.012 3.14-.012a237493723.85 237493723.85 0 0 0 5.743.008C203 210 203 210 204 211c.237 2.859.422 5.699.562 8.562l.131 2.444c.107 1.998.207 3.996.307 5.994 7.497.49 7.497.49 14.562-1.688 3.194-3.03 4.25-5.632 4.739-9.996.095-7.648.095-7.648-3.301-14.316-7.896-5.336-16.436-4.513-25.591-4.415-15.094.108-15.094.108-21.409-5.585l-1.988-1.773-1.325-1.602-1.363-1.586c-1.819-2.801-3.008-5.969-4.324-9.039l-1 78h-3l-1 5h-1V160h-6v40h-1v-37h-6l.016 3.38c.018 4.125.03 8.249.039 12.373.005 1.788.012 3.576.02 5.363.013 2.565.018 5.129.023 7.693l.015 2.436c0 1.919-.051 3.837-.113 5.755l-1 1a99.984 99.984 0 0 0 0 5l-3 1v19h2c.146 6.47.288 12.94.427 19.41.048 2.19.096 4.382.146 6.573.165 7.339.307 14.678.427 22.017l.054 2.978c.045 2.763.076 5.525.102 8.288l.045 2.468c.022 4.194-.2 7.535-2.201 11.266l-1.625 1.312c-2.027 2.488-1.842 4.715-1.746 7.848.198 2.06.198 2.06 2.371 3.277 2 1.563 2 1.563 2.406 3.56.164 4.15-.04 6.417-2.281 10.003-3.423 3.222-5.516 3.1-10.125 3l.437 1.758c1.072 4.509 1.802 8.573 1.563 13.242l-10 1 .5 3.687c.692 6.098.585 12.185.5 18.313l-3-1-1 4h4l1-2c1.323 4.96 1.089 9.911 1 15h7v1l-7 1c-1.591-4.177-2.213-7.532-2-12h-2l-3 12c-10.238-2.56-18.366-19-23.512-27.496-23.96-42.077-30.61-91.085-18.243-137.842 8.448-29.791 24.14-55.026 45.417-77.26a356.115 356.115 0 0 0 3.42-3.644c17.21-18.043 42.253-33.474 66.344-40.02 2.292-.657 4.517-1.407 6.77-2.187 4.728-1.588 9.482-2.686 14.366-3.676l2.42-.512c51.17-10.592 106.82 5.075 146.794 38.105Z" fill="#1C2627"/><path d="m258.75 137.875 3.96-.014c21.982.036 21.982.036 28.29 2.139 1.56.128 3.124.229 4.688.313 6.085.487 11.71 2.03 17.539 3.75 7.15 1.404 14.5 1.51 21.773 1.937v93c-2.192-2.192-2.532-3.334-3.375-6.25-3.1-9.591-9.156-15.127-17.938-19.625-3.208-1.647-3.208-1.647-6.687-2.125l1.906.813c9.185 4.205 15.752 10.002 20.094 19.187 1.853 5.421 2.32 10.2 2.336 15.855l.02 2.498c.01 1.73.015 3.46.015 5.19.004 2.648.04 5.293.078 7.94.006 1.686.01 3.373.012 5.06l.043 2.39c-.03 3.592-.128 5.603-2.43 8.44L327 280a127.61 127.61 0 0 0-3.25 5.188c-8.006 12.82-19.71 23.59-33 30.828-1.813 1.02-3.517 2.146-5.25 3.296-9.788 6.127-20.165 10.472-31.5 12.688 1-3 1-3 4.176-4.797 1.375-.66 2.754-1.31 4.137-1.953 1.47-.71 2.938-1.424 4.406-2.14l2.207-1.077c8.141-4.055 15.567-8.932 22.797-14.431C294 306 294 306 297 305v-2a60.856 60.856 0 0 1 3.438-2.875c7.551-6.412 12.687-14.594 17.562-23.125h-30l-.063-11.438-.027-3.61-.008-2.823-.016-2.904C288 254 288 254 289 253c2.863-.073 5.7-.092 8.563-.063l2.443.014c1.998.012 3.996.03 5.994.049.84-8.561.84-8.561-2.25-16.188-5.72-3.77-9.91-4.556-16.75-3.812-3.402 1.365-3.402 1.365-6 3h-2c-1.901 4.026-2.25 7.265-2.273 11.7l-.063 3.915c-.022 2.03-.039 4.058-.045 6.088-.049 9.956-1.163 17.538-6.307 26.11-3.357 3.175-7.203 5.125-11.312 7.187l-2.094 1.145C255 293 255 293 252 293v-42c-12.667 2.562-12.667 2.562-22.586 9.656C228 262 228 262 226 262v2c-4.096 3.855-7.375 4.231-12.938 4.688-5.086.561-5.086.561-9.316 3.187-1.74 2.304-3.251 4.657-4.746 7.125-6.19 8.053-6.19 8.053-11 10-2.692.18-5.297.09-8 0l-1 1 1.747-.226c6.209-.464 6.209-.464 9.021 1.393 1.634 1.683 3.093 3.429 4.544 5.27 1.114 1.3 2.235 2.593 3.364 3.88l1.682 1.918c9.976 10.724 24.364 17.877 37.438 24.152 2.766 1.335 5.015 2.424 7.204 4.613-6.209-.54-11.31-2.523-17-5l-2.594-1.094C216.603 321.51 209.324 317.31 202 313v-2l-1.676-.254C188.134 306.833 177.71 291.838 172 281l-1.371-2.512c-6.831-13.561-7.066-28.282-6.922-43.113a2724.21 2724.21 0 0 1 .087-18.631c.031-4.6.044-9.2.06-13.799.031-8.982.082-17.963.146-26.945 1.973 2.57 3.482 4.895 4.75 7.875 2.741 5.651 7.431 9.766 13.25 12.125 3.26.303 3.26.303 6.89.273 1.364.02 2.727.042 4.09.063 2.13.022 4.261.039 6.392.045 14.912.07 14.912.07 21.628 4.619 1.938 2.625 1.938 2.625 3 5l1 2c.524 6.173.789 11.822-3 17-4.618 4.387-8.647 4.394-14.707 4.238C205 229 205 229 204 228c-.237-2.86-.422-5.697-.563-8.563L203 211h-22v42l18.25-.188 5.68-.02c12.483-.163 23.073-1.933 32.394-11.003L239 240l1.457-1.477c5.934-6.992 8.32-19.106 7.86-28.066-1.371-10.642-4.438-20.859-13.067-27.832-7.422-5.029-15.656-7.678-24.591-7.83l-3.154-.06-3.368-.051-3.476-.063c-3.658-.066-7.316-.125-10.974-.184l-7.447-.13c-6.08-.108-12.16-.207-18.24-.307v-24c5.473-1.824 10.218-3.388 15.75-4.5a345.611 345.611 0 0 0 13.625-3.063c21.372-4.888 43.563-4.513 65.375-4.562Z" fill="#A47C53"/><path d="M153 160h6c1.033 5.094 1.136 9.956 1.114 15.126v2.722c0 2.955-.008 5.909-.016 8.863l-.005 6.162c-.003 5.396-.013 10.791-.024 16.187-.01 5.51-.015 11.02-.02 16.53-.01 10.803-.028 21.607-.049 32.41l1-2h3l1-2 .375 2.938c1.953 13.318 6.844 25.301 15.594 35.68C182 294 182 294 182 296l3 1a582.563 582.563 0 0 1 3.406 4.238c3.713 4.105 8.324 8.005 13.594 9.762l3 3c11.241 7.036 24.033 13.17 37 16l-2.938-1.398c-17.458-8.439-34.318-18.08-46.812-33.227-2.958-3.468-4.734-4.987-9.313-5.5L179 290l1-3v2l3-1 2.313.188c5.092-.356 7.722-3.097 10.964-6.762 4.318-5.146 4.318-5.146 8.059-10.703 2.545-2.635 5.026-2.46 8.601-2.786 4.733-.442 7.438-.833 11.063-3.937h2v-2c5.605-5.62 12.298-9.19 20-11h6v42c11.451-4.484 11.451-4.484 19.25-12.938l1.516-2.59c2.217-4.44 2.373-8.3 2.445-13.25l.086-3.993c.041-2.085.078-4.17.104-6.254.028-2.022.075-4.043.122-6.065l.06-3.652c.53-4.145 1.83-6.978 5.108-9.621 5.389-2.734 10.305-3.758 16.309-2.637 4.402 1.922 7.329 3.993 10 8 .23 2.629.23 2.629.188 5.563l-.02 2.94C307 251 307 251 306 253l-17 1-1 23h30c-2.451 9.804-11.77 19.052-19 26h-2v2c-11.87 10.133-26.043 17.249-40 24l-2 1v3c-1.458.027-2.917.046-4.375.063l-2.46.035C246 333 246 333 244 332l-1 3-2.313.438c-2.769.525-2.769.525-5.687 1.562v37l-4 1-1-37h-8v25c-2.743-2.743-4.052-4.692-5.813-8.063l-1.601-2.93a111.684 111.684 0 0 1-2.922-5.952c-1.36-2.76-2.476-4.885-4.664-7.055-3.8-.836-7.177-.612-11 0l.092 1.674c.635 11.789 1.058 23.519.908 35.326h8v1c-1.458.027-2.917.046-4.375.063l-2.46.035C196 377 196 377 194 376l-1-7h-20v-7l12-1v-7h-13v-6l3.395-.402 4.417-.536 2.237-.263c3.118-.381 5.962-.803 8.951-1.799v-6l-28 2 .5 7.063c.531 7.99.604 15.931.5 23.937l-2-3-3 2 .105-2.563c.165-6.9.143-12.277-3.105-18.437-3.889-3.7-6.51-5.094-11.79-5.316l-2.85-.127-2.985-.12-3.008-.13c-2.455-.107-4.911-.209-7.367-.307v-1h6l-.438-1.758c-1.07-4.509-1.801-8.573-1.562-13.242l3.813-.75c2.593-.675 4.054-1.146 6.187-2.813 1.545-3.766 1.732-7.433 1-11.437a125.01 125.01 0 0 0-4-3c-.392-3.089-.617-5.047 0-8 1.938-2.25 1.938-2.25 4-4 1.286-3.498 1.12-7.005 1.114-10.696v-2.012c0-2.186-.008-4.372-.016-6.558l-.005-4.556c-.003-3.992-.013-7.983-.024-11.975-.01-4.075-.015-8.15-.02-12.226-.01-7.993-.028-15.985-.049-23.977h-2v-19l2-1c.656-2.527.656-2.527 1-5l-4-1h5v-37h6l1-3Z" fill="#202624"/><path d="m248.563 81.688 2.09.004c50.223.194 94.252 19.94 130.347 54.308l2.02 1.895c33.997 32.77 51.3 81.55 52.23 128.042-.508 25.586-4.936 51.952-16.25 75.063l-1.746 3.68c-9.144 19.022-20.774 35-35.254 50.32l-2.434 2.598C372.93 404.474 365.636 410.29 358 416l-2.625 1.969c-18.803 13.607-40.504 22.808-63 28.219l-1.951.47c-2.135.487-4.275.922-6.424 1.342l-2.698.544c-10.22 1.83-20.393 1.853-30.74 1.831h-2.825c-13.972-.032-27.171-.807-40.737-4.375-1.522-.356-3.044-.71-4.566-1.063-29.321-7.12-56.028-22.798-77.786-43.464a117.631 117.631 0 0 0-5.78-5.07C101.982 382.255 90.227 360.644 81 341l-1.212-2.49c-3.24-6.824-5.505-13.664-7.475-20.947l-.893-3.159c-13.217-47.907-5.3-98.51 18.797-141.579 4.61-7.836 10.087-15.058 15.717-22.18 2.126-2.653 2.126-2.653 4.066-5.645h2l.818-1.802c1.174-2.184 2.347-3.62 4.088-5.37l1.741-1.753 1.853-1.825 1.892-1.875C136.042 119 136.042 119 140 119v-2h3v-2a85.636 85.636 0 0 1 6-4.125l1.905-1.207c29.449-18.292 62.98-28.125 97.657-27.98ZM213 92l-2.217.486C203.562 94.095 196.798 96.03 190 99c-2.1.698-4.205 1.386-6.313 2.063-35.621 12.654-71.919 44.07-88.875 77.937l-1.39 2.973a130.699 130.699 0 0 1-3.094 6.148c-21.538 40.456-22.83 87.97-10.055 131.262C93.302 361.683 121.668 395.84 159 419l2.176 1.453c8.926 5.771 19.006 9.566 28.824 13.547l2.02.824c40.644 15.95 90.897 11.392 130.314-5.616 12.985-5.882 24.6-13.604 36.05-22.038 1.512-1.095 3.063-2.135 4.616-3.17v-2l1.61-.656c3.277-1.842 5.898-4.305 8.64-6.844l1.68-1.512c1.399-1.285 2.74-2.632 4.07-3.988v-2h2c22.834-24.113 38.252-56.49 44-89l.542-3.064c1.555-9.742 1.814-19.276 1.77-29.123l-.003-2.468c-.034-12.026-.587-23.588-3.309-35.345l-.762-3.508c-1.139-4.905-2.503-9.657-4.375-14.332a161.883 161.883 0 0 1-1.883-4.976c-3.334-9.09-7.46-17.639-11.98-26.184l-1.684-3.191c-7.132-12.845-16.841-23.814-26.955-34.38a296.514 296.514 0 0 1-3.591-3.855C356.59 120.485 334.486 108.884 313 100l-3.145-1.305C280.252 87.245 243.896 84.995 213 92Z" fill="#DFE0E0"/><path d="M299.344 233.023c3.433 2.053 5.408 3.605 7.656 6.977.23 2.629.23 2.629.188 5.563l-.02 2.94C307 251 307 251 306 253l-17 1-1 23h30c-2.451 9.804-11.77 19.052-19 26h-2v2c-11.87 10.133-26.043 17.249-40 24l-2 1v3c-1.458.027-2.917.046-4.375.063l-2.46.035C246 333 246 333 244 332v-2l-3.5-.938c-18.114-6.085-38.4-20.161-50.04-35.335-2.167-2.856-2.167-2.856-4.917-3.532l-2.356-.07-2.394-.117L179 290l1-3v2l3-1 2.313.188c5.092-.356 7.722-3.097 10.964-6.762 4.318-5.146 4.318-5.146 8.059-10.703 2.545-2.635 5.026-2.46 8.601-2.786 4.733-.442 7.438-.833 11.063-3.937h2v-2c5.605-5.62 12.298-9.19 20-11h6v42c11.451-4.484 11.451-4.484 19.25-12.938l1.516-2.59c2.217-4.44 2.373-8.3 2.445-13.25l.086-3.993c.041-2.085.078-4.17.104-6.254.028-2.022.075-4.043.122-6.065l.06-3.652c.53-4.145 1.83-6.978 5.108-9.621 6.038-3.063 12.235-4.416 18.653-1.614Z" fill="#A57C53"/><path d="M317 216c7.428 6.086 11.753 12.617 14 22 .287 2.954.328 5.889.336 8.855l.02 2.498c.01 1.73.015 3.46.015 5.19.004 2.648.04 5.293.078 7.94.006 1.686.01 3.373.012 5.06l.043 2.39c-.03 3.592-.128 5.603-2.43 8.44L327 280a127.61 127.61 0 0 0-3.25 5.188c-8.006 12.82-19.71 23.59-33 30.828-1.813 1.02-3.517 2.146-5.25 3.296-9.788 6.127-20.165 10.472-31.5 12.688 1-3 1-3 4.176-4.797 1.375-.66 2.754-1.31 4.137-1.953 1.47-.71 2.938-1.424 4.406-2.14l2.207-1.077c8.141-4.055 15.567-8.932 22.797-14.431C294 306 294 306 297 305v-2a60.856 60.856 0 0 1 3.438-2.875c7.551-6.412 12.687-14.594 17.562-23.125h-30l-.063-11.438-.027-3.61-.008-2.823-.016-2.904C288 254 288 254 289 253c2.863-.073 5.7-.092 8.563-.063l2.443.014c1.998.012 3.996.03 5.994.049.84-8.561.84-8.561-2.25-16.188-5.72-3.77-9.91-4.556-16.75-3.812-3.402 1.365-3.402 1.365-6 3h-2c-1.901 4.026-2.25 7.265-2.273 11.7l-.063 3.915c-.022 2.03-.039 4.058-.045 6.088-.049 9.956-1.163 17.538-6.307 26.11-3.357 3.175-7.203 5.125-11.312 7.187l-2.094 1.145C255 293 255 293 252 293a4056.53 4056.53 0 0 1-.165-22.15c-.015-2.509-.035-5.018-.061-7.527-.037-3.617-.054-7.233-.067-10.85-.015-1.113-.03-2.226-.047-3.373-.001-6.638.848-11.956 3.34-18.1l1.188-3.563c4.439-8.419 12.027-14.001 20.89-17.183 13.476-3.619 28.184-1.739 39.922 5.746Z" fill="#E2E2E1"/><path d="M165 175c7.792-.102 15.584-.172 23.376-.22 2.648-.02 5.296-.047 7.944-.082 3.818-.049 7.635-.071 11.453-.089l3.556-.062c11.38-.003 20.539 3.336 28.671 11.453 6.539 8.238 9.738 18.723 9.348 29.23-1.203 9.58-3.398 18.74-10.348 25.77l-1.742 1.855c-8.729 8.494-18.476 10.673-30.267 10.622-2.58-.038-5.16-.1-7.741-.165a2366.21 2366.21 0 0 0-5.328-.068c-4.308-.054-8.615-.14-12.922-.244-1.688-3.375-1.142-7.199-1.133-10.91l-.003-2.675c0-1.867.001-3.734.006-5.6.005-2.87 0-5.738-.007-8.606 0-1.81.002-3.621.004-5.432l-.006-2.616c.024-6.046.024-6.046 1.139-7.161 1.623-.1 3.25-.13 4.875-.133l2.984-.004 3.141.012 3.14-.012 2.985.004 2.758.004C203 210 203 210 204 211c.237 2.859.422 5.699.563 8.563l.13 2.443c.107 1.998.207 3.996.307 5.994 7.497.49 7.497.49 14.563-1.688 3.193-3.03 4.249-5.632 4.738-9.996.095-7.648.095-7.648-3.301-14.316-7.896-5.336-16.436-4.513-25.591-4.415-15.094.108-15.094.108-21.409-5.585l-1.988-1.773C168.232 185.655 165 181.155 165 175Z" fill="#1D2626"/><path d="M164 176c1.973 2.57 3.482 4.895 4.75 7.875 2.741 5.651 7.431 9.766 13.25 12.125 3.26.303 3.26.303 6.89.273 1.364.02 2.727.042 4.09.063 2.13.022 4.261.039 6.392.045 14.912.07 14.912.07 21.628 4.619 1.938 2.625 1.938 2.625 3 5l1 2c.524 6.173.789 11.822-3 17-4.618 4.387-8.647 4.394-14.707 4.238C205 229 205 229 204 228c-.237-2.86-.422-5.697-.563-8.563L203 211h-22v42l18.25-.188 5.68-.02c12.512-.163 22.985-1.973 32.386-10.964 3.822-4.15 6.88-8.417 8.684-13.828 1.126 3.409 1 3.999-.375 7.625-5.106 9.387-12.524 16.482-22.594 20.078-7.728 2.08-16.077 1.95-24.031 2.297l-.516 2.344c-1.803 7.748-4.048 14.001-8.484 20.656-2.625 1.188-2.625 1.188-5 2l.938 1.875L188 289l-3.938-.063A59.19 59.19 0 0 0 180 289l-1 1 1.747-.226c6.209-.464 6.209-.464 9.021 1.393 1.634 1.683 3.093 3.429 4.544 5.27 1.114 1.3 2.235 2.593 3.364 3.88l1.682 1.918c9.976 10.724 24.364 17.877 37.438 24.152 2.766 1.335 5.015 2.424 7.204 4.613-6.209-.54-11.31-2.523-17-5l-2.594-1.094C216.603 321.51 209.324 317.31 202 313v-2l-1.676-.254C188.134 306.833 177.71 291.838 172 281l-1.371-2.512c-6.831-13.561-7.066-28.282-6.922-43.113a2724.21 2724.21 0 0 1 .087-18.631c.031-4.6.044-9.2.06-13.799.031-8.982.082-17.963.146-26.945Z" fill="#A27C55"/><path d="M339 272h1l-.051 3.155c-.579 26.976-.579 26.976 8.215 52.099 1.452 2.659 1.85 3.482 1.688 6.598-1.07 2.698-2.028 4.868-3.852 7.148-2.61.137-2.61.137-5 0l-.148 2.508c-.722 11.519-1.77 23.002-2.852 34.492h-2c-3.08-4.119-4.175-8.608-5.438-13.5a2558.22 2558.22 0 0 0-1.289-4.813l-.641-2.394c-1.194-4.332-2.566-8.607-3.933-12.887C324 342 324 342 324 340h-10l-1.345 2.982c-1.649 3.652-3.3 7.302-4.954 10.952-.715 1.58-1.429 3.16-2.141 4.74a4166.063 4166.063 0 0 1-3.083 6.814l-.963 2.14c-1.347 2.963-2.704 5.658-4.514 8.372v-9h-17v-29h-9l.035 3.05c.085 11.017-.36 21.955-1.035 32.95h-1v-20h-2l-.332-2.3-.48-3.012-.458-2.989c-.793-2.933-1.306-3.929-3.73-5.699-4.758-2.675-9.992-2.445-15.313-2.625l-2.822-.117c-2.288-.094-4.576-.18-6.865-.258 1.313-1.5 1.313-1.5 3-3h3l1-2 2.16.105 2.903.082 2.847.106c3.075-.292 5.257-1.138 8.038-2.426 4.324-1.827 8.908-2.936 13.427-4.18l3.302-.917c9.816-2.693 19.691-5.095 29.6-7.415a413.32 413.32 0 0 0 10.602-2.617l2.205-.575c1.872-.493 3.742-.996 5.611-1.499C328 312 328 312 335 312v-35h1v13l2-1 1-17Z" fill="#1E2625"/><path d="m258.75 137.875 3.96-.014c21.982.036 21.982.036 28.29 2.139 1.56.128 3.124.229 4.688.313 6.085.487 11.71 2.03 17.539 3.75 7.15 1.404 14.5 1.51 21.773 1.937v93c-2.192-2.192-2.532-3.334-3.375-6.25-1.625-5.124-3.79-8.914-7.625-12.75-.24-2.594-.24-2.594-.227-5.918v-3.761l.032-4.079.008-4.161c.008-3.653.028-7.306.05-10.96.02-3.726.03-7.453.04-11.18.02-7.313.055-14.627.097-21.941l-2.087-.411c-.902-.18-1.805-.358-2.735-.542l-2.712-.537a93.385 93.385 0 0 1-7.654-1.947c-18.573-5.166-37.12-6.96-56.312-6.875l-2.658.006c-22.468.088-43.25 3.191-65.041 8.69-3.234.711-6.523 1.148-9.801 1.616v16h-11v-24c5.473-1.824 10.218-3.388 15.75-4.5a345.611 345.611 0 0 0 13.625-3.063c21.372-4.888 43.563-4.513 65.375-4.562Z" fill="#E2E1DF"/><path d="M341 160h5l1 34 1-32h5l1 38 4 1h-4c.344 2.473.344 2.473 1 5l2 1c.027 2.98.047 5.958.063 8.938l.025 2.576.01 2.45.016 2.27C357 225 357 225 356 226a62.25 62.25 0 0 0-.205 4.202l-.06 2.717-.051 2.976-.063 3.08c-.044 2.17-.085 4.34-.124 6.51-.058 3.248-.123 6.496-.19 9.744-.199 9.968-.353 19.937-.397 29.908l-.02 2.418c-.005 3.545.124 6.931.678 10.436L356 301l-1 1c.09 1.525.245 3.047.438 4.563l.308 2.503L356 311h-2c.913 8.984.913 8.984 6 16 3.642.89 3.642.89 7 1-.68 8.219-.68 8.219-2.125 11.75-1.1 2.206-1.1 2.206-.371 4.434.632 3.586.129 6.54-.442 10.128l-.59 3.801L363 361c-2.13-2.13-2.586-3.294-3.516-6.098l-.855-2.427a298.93 298.93 0 0 1-1.711-5.086c-.826-2.298-1.595-4.335-2.918-6.389-3.105-1.214-3.105-1.214-6-1l.373-1.653c1.003-5.712.298-8.873-2.444-13.915-7.816-14.41-7.096-29.392-6.809-45.272.061-3.936.069-7.872.082-11.809.033-7.424.11-14.847.206-22.27.128-10.102.191-20.205.256-30.307a42863.576 42863.576 0 0 1 .064-9.686c.032-4.67.075-9.339.129-14.008.033-2.894.062-5.789.091-8.683.022-1.978.05-3.956.076-5.933l.036-3.575.038-3.1c-.01-2.804-.01-2.804-.727-5.532L339 162l2-2Z" fill="#C1C2C2"/><path d="M153 160h6c.381 1.991.713 3.993 1 6l-1 1a102.68 102.68 0 0 0-.066 5.517l.03 3.632.05 4.021.038 4.208c.027 3.031.056 6.062.087 9.092.047 4.806.079 9.612.106 14.417l.015 2.46.043 7.503c.06 10.35.13 20.698.246 31.047.084 7.543.14 15.085.163 22.628.013 3.988.04 7.974.103 11.96.464 30.438.464 30.438-6.994 41.5-2.071 3.429-2.587 6.04-2.821 10.015l1 1c.04 2.333.042 4.667 0 7-2.612-.147-5.206-.34-7.813-.563l-2.236-.11c-2.158-.206-2.158-.206-5.951-1.327-2.618-4.418-3.373-7.9-3-13l3.813-.75c2.593-.675 4.054-1.146 6.187-2.813 1.545-3.766 1.732-7.433 1-11.437a125.01 125.01 0 0 0-4-3c-.392-3.089-.617-5.047 0-8 1.938-2.25 1.938-2.25 4-4 1.286-3.498 1.12-7.005 1.114-10.696v-2.012c0-2.186-.008-4.372-.016-6.558l-.005-4.556c-.003-3.992-.013-7.983-.024-11.975-.01-4.075-.015-8.15-.02-12.226-.01-7.993-.028-15.985-.049-23.977h-2v-19l2-1c.656-2.527.656-2.527 1-5l-4-1h5v-37h6l1-3Z" fill="#BFC0C0"/><path d="M164 176c1.973 2.57 3.482 4.895 4.75 7.875 2.741 5.651 7.431 9.766 13.25 12.125 3.26.303 3.26.303 6.89.273 1.364.02 2.727.042 4.09.063 2.13.022 4.261.039 6.392.045 14.862.069 14.862.069 21.628 4.619 2.82 3.456 3.49 6.612 4 11-2-2-2-2-3.438-4.5-1.472-2.737-1.472-2.737-4.562-4.5-3.233-.288-3.233-.288-6.941-.238-1.403-.016-2.806-.032-4.21-.05a616.004 616.004 0 0 0-6.588-.017c-2.13.002-4.26-.026-6.39-.058l-3.846-.01c-5.193-.423-9.556-3.122-14.025-5.627-.094 7.66-.164 15.32-.207 22.98-.02 3.558-.049 7.117-.095 10.676-1.087 24.929-1.087 24.929 6.48 48.143L183 282c-.625 2.188-.625 2.188-2 4a190.086 190.086 0 0 0-2 4l1.747-.226c6.209-.464 6.209-.464 9.021 1.393 1.634 1.683 3.093 3.429 4.544 5.27 1.114 1.3 2.235 2.593 3.364 3.88l1.682 1.918c9.976 10.724 24.364 17.877 37.438 24.152 2.766 1.335 5.015 2.424 7.204 4.613-6.209-.54-11.31-2.523-17-5l-2.594-1.094C216.603 321.51 209.324 317.31 202 313v-2l-1.676-.254C188.134 306.833 177.71 291.838 172 281l-1.371-2.512c-6.831-13.561-7.066-28.282-6.922-43.113a2724.21 2724.21 0 0 1 .087-18.631c.031-4.6.044-9.2.06-13.799.031-8.982.082-17.963.146-26.945Z" fill="#E4E2DF"/><path d="M124 344c4.042-.108 8.082-.187 12.125-.25l3.46-.102c10.594-.123 10.594-.123 15.415 4.352 4.523 5.867 5.747 10.617 5 18-1.798 5.893-4.094 8.566-9 12-4.711 2.413-9.624 2.653-14.813 3.125l-2.677.262c-2.17.21-4.34.413-6.51.613l-2-13h-4l1-4h2v-21Z" fill="#9B7956"/><path d="M153 160h6c.381 1.991.713 3.993 1 6l-1 1a58.61 58.61 0 0 0-.158 4.106l-.03 2.682-.017 2.964-.03 3.104c-.032 3.403-.057 6.807-.081 10.21l-.063 7.058c-.056 6.207-.105 12.413-.153 18.619-.05 6.327-.106 12.654-.161 18.982-.108 12.425-.21 24.85-.307 37.275h-1v-36h-2l.016 2.551c.017 3.152.03 6.303.039 9.455.005 1.358.012 2.717.02 4.076.013 1.963.018 3.927.023 5.89l.016 3.571c-.117 3.55-.548 6.952-1.114 10.457l-2-1a1890.33 1890.33 0 0 1-.063-7.938l-.025-2.287c-.009-1.925.036-3.85.088-5.775l1-1c.04-1.666.043-3.334 0-5l-4 1 1-12-5 3c-1.036-5.05-1.103-9.874-1-15h-2v-19l2-1c.656-2.527.656-2.527 1-5l-4-1h5v-37h6l1-3Z" fill="#C1C1C1"/><path d="M341 342h11c2.661 5.132 4.948 10.278 7.055 15.66 1.884 5.031 1.884 5.031 4.945 9.34 1.27-5.483 1.41-10.999 1.719-16.602C366 347 366 347 367 344h8v19l4 2-1 4h-3l.875 2.555 1.125 3.32 1.125 3.305C379 381 379 381 379 383l-6 1-1-2c-1.935-.1-3.875-.13-5.813-.125-5.687-.404-5.687-.404-7.73-2.328-1.07-2.15-1.776-4.244-2.457-6.547-.683-1.835-1.371-3.668-2.063-5.5l-.91-2.594c-1.292-3.655-2.659-7.279-4.027-10.906l-.168 1.972c-.253 2.947-.511 5.894-.77 8.84l-.263 3.104-.264 2.979-.238 2.745C347 376 347 376 346 379l-8-1c-.203-8.388.362-16.443 1.5-24.75l.434-3.305c.348-2.649.706-5.297 1.066-7.945Z" fill="#9E7954"/><path d="m191 339 1 7c-13.633 2.296-13.633 2.296-20 2v6h13v7l-12 1v7l1.82-.108c2.706-.157 5.412-.306 8.118-.454l2.865-.17 2.724-.147 2.524-.143C193 368 193 368 194 369c.125 3.5.125 3.5 0 7-2.281 2.281-7.906 1.327-10.996 1.426-3.12.232-3.12.232-4.414 2.617L178 382l1.938.688C182 384 182 384 182.75 386.188c.292 3.284.315 6.516.25 9.812h-2l-1-5h-3v5h-2l-1-9h-4v9h-3v-9h-3c-.17-1.416-.335-2.833-.5-4.25l-.281-2.39C162.02 367.44 163 353.982 163 341c18.82-2.296 18.82-2.296 28-2Z" fill="#957655"/><path d="M164 254h1l.375 2.938c1.953 13.318 6.844 25.301 15.594 35.68C182 294 182 294 182 296l3 1a582.563 582.563 0 0 1 3.406 4.238c3.713 4.105 8.324 8.005 13.594 9.762l1.375 1.383c6.056 6.027 15.898 9.24 23.625 12.617v1c-5.917-.237-11.307-.955-16.941-2.824-7.99-2.535-16.102-4.35-24.277-6.179-1.933-.434-3.865-.874-5.798-1.313l-3.415-.764c-4.25-1.095-8.405-2.532-12.569-3.92v-57Z" fill="#A47D56"/><path d="M350 272c2.283 1.69 3.8 3.061 4.408 5.905.176 2.307.251 4.594.28 6.908.042 1.569.088 3.138.136 4.707l.06 2.283c.111 2.106.365 4.128.698 6.209L356 301l-1 1c.09 1.525.245 3.047.438 4.563l.308 2.503L356 311h-2c.913 8.984.913 8.984 6 16 3.642.89 3.642.89 7 1-.68 8.219-.68 8.219-2.125 11.75-1.1 2.206-1.1 2.206-.371 4.434.632 3.586.129 6.54-.442 10.128l-.59 3.801L363 361c-2.13-2.13-2.586-3.294-3.516-6.098l-.855-2.427a298.93 298.93 0 0 1-1.711-5.086c-.826-2.298-1.595-4.335-2.918-6.389-3.105-1.214-3.105-1.214-6-1l.777-3.844c.671-6.048-1.583-10.33-4.214-15.656-4.577-9.344-5.067-15.742-3.786-25.883.47-5.522.294-11.08.223-16.617l3-1c2.585 5.17.938 12.486 0 18l3-3-1-3a99.155 99.155 0 0 1-.063-5.188l.028-2.73L346 279h3l-1-6 2-1Z" fill="#C1C2C3"/><path d="M335 276v36c-9.875 1.813-9.875 1.813-12.921 2.363a135.192 135.192 0 0 0-15.619 3.89c-4.111 1.248-8.285 2.235-12.46 3.247-6.121 1.495-12.17 3.037-18.125 5.117-2.251.46-3.686-.008-5.875-.617 1.61-.78 1.61-.78 3.254-1.574l4.308-2.113 2.135-1.03c4.81-2.371 8.986-5.106 13.303-8.283l3.313-1.75c7.103-3.928 13.14-10.403 18.687-16.25l1.64-1.727c3.391-3.7 6.014-7.298 8.423-11.71 2.517-4.42 2.517-4.42 6.25-5.688 1.843.091 1.843.091 3.687.125Z" fill="#A17B54"/><path d="M257 221h3l-.875 1.734c-4.64 9.344-6.155 17.979-7.125 28.266l-2.563.48c-7.728 1.59-14.438 3.343-20.023 9.176C228 262 228 262 226 262v2c-4.096 3.855-7.375 4.231-12.938 4.688-5.086.561-5.086.561-9.316 3.187-1.74 2.304-3.256 4.653-4.746 7.125-3.498 4.735-5.994 7.713-12 9l-3-3 2-4h4c3.466-6.87 6.33-13.54 8.191-21.031L199 258c3.303-1.1 6.025-1.214 9.5-1.375 12.009-.817 21.908-3.424 30.25-12.438 5.244-6.364 7.862-13.372 10.25-21.187l3.438-.438c3.37-.174 3.37-.174 4.562-1.562Z" fill="#553F29"/><path d="M207 338c1.773 1.984 1.773 1.984 3.375 4.75l1.777 3.004L214 349l2.004 3.402A1130.7 1130.7 0 0 1 221 361l1-23h8c.846 8.44 1.128 16.771 1.063 25.25l-.014 3.45c-.012 2.766-.03 5.533-.049 8.3h-12l-2.563-4.75c-3.355-6.158-6.881-12.205-10.437-18.25l-1 24h-8c-.978-12.35-1.117-24.617-1-37 7.921-1.474 7.921-1.474 11-1Z" fill="#A07B54"/><path d="M276 157h3l1 9c3.113 0 5.108-.174 8-1l-1 4h-2l-1 9 3-.25c3.91 0 6.485 1.237 9.867 3.094 2.331 1.263 4.705 2.34 7.133 3.406l2.313 1.016L308 186c-1.582 3.357-2.758 5.072-6 7l-3.375.938c-4.043 1.184-6.527 2.185-9.625 5.062-.789 3.006-.987 5.9-1 9l-3.875.688c-4.814 1.037-8.772 3.005-13.059 5.386L269 215l-2-1 1.332-2.352c2.224-4.448 3.219-9.207 4.356-14.023l.681-2.809c.55-2.27 1.094-4.542 1.631-6.816l-2.875.063C269 188 269 188 267 187c1-3 1-3 3.031-4.133l2.469-.992c2.983-1.076 2.983-1.076 5.5-2.875.397-4.966.397-4.966-1.5-9.438-2.165-3.698-1.779-6.31-1.5-10.562l1-2Z" fill="#553F28"/><path d="M314 339c1.691.09 3.38.246 5.063.438l2.785.308L324 340c4.381 12.543 8.256 24.995 11 38h-10l-1-7-15-1-2 6h-9c.656-4.412 2.28-8.213 4.125-12.234l.93-2.057a1370.97 1370.97 0 0 1 1.947-4.276c1-2.187 1.992-4.378 2.982-6.57l1.891-4.16.903-1.992c2.106-4.595 2.106-4.595 3.222-5.711Z" fill="#9F7A53"/><path d="M246 228c1.126 3.409 1 3.999-.375 7.625-5.106 9.387-12.524 16.482-22.594 20.078-7.728 2.08-16.077 1.95-24.031 2.297l-.516 2.344c-1.803 7.748-4.048 14.001-8.484 20.656-2.625 1.188-2.625 1.188-5 2l.938 1.875L188 289h-8a84.76 84.76 0 0 1 2-7c-.948-1.625-1.9-3.247-2.875-4.855-3.82-7.283-4.599-15.055-4.125-23.145 3.94-2.704 8.158-2.165 12.719-2.02 1.755.03 3.51.06 5.265.088 2.748.056 5.494.119 8.24.2 13.075.36 23.575-.07 34.214-8.643 4.704-4.5 8.479-9.375 10.562-15.625Z" fill="#A37D55"/><path d="M154 279h1l1 13 2-1c.783 12.562.996 22.708-5.371 33.809-1.78 3.487-2.364 6.301-2.629 10.191l1 1c.04 2.333.042 4.667 0 7-2.612-.147-5.206-.34-7.813-.563l-2.236-.11c-2.158-.206-2.158-.206-5.951-1.327-2.618-4.418-3.373-7.9-3-13l5.957-1.172c2.753-1.116 3.641-2.215 5.043-4.828.213-2.91.213-2.91-.063-6.063-.19-6.726 1.328-11.845 4.063-17.937h3l-1-6 4-1 1-12Z" fill="#C3C4C4"/><path d="M299.344 233.023c3.433 2.053 5.408 3.605 7.656 6.977.23 2.629.23 2.629.188 5.563l-.02 2.94C307 251 307 251 306 253h-10c1.45-3.791 3.152-7.387 5-11l-1.652.367c-1.587.353-3.175.704-4.762 1.055-1.684.376-3.367.761-5.047 1.156l-2.351.547-2.145.508C283 246 283 246 279 246l.08 2.535c.085 3.139.148 6.276.195 9.416.037 2.013.1 4.025.164 6.037.097 7.725-.181 13.122-5.439 19.012l-1.887 2.172c-4.942 4.33-9.884 6.773-16.113 8.828 1-3 1-3 2.672-3.992l2.078-.883c6.635-3.14 9.996-7.734 13.25-14.125 1.188-3.568 1.156-7.036 1.21-10.777.03-1.318.058-2.636.087-3.994.041-2.085.078-4.17.104-6.254.028-2.022.075-4.043.122-6.065l.06-3.652c.53-4.145 1.83-6.978 5.108-9.621 6.038-3.063 12.235-4.416 18.653-1.614Z" fill="#523D27"/><path d="m236 338 11.188-.188 3.5-.082 2.792-.023 2.841-.048c4.149.528 6.767 2.429 9.679 5.341.313 2.938.313 2.938 0 6a103.49 103.49 0 0 1-3 3c-.25 2.626-.25 2.626 0 5l-7 2 2-5-1-1c-.04-2.333-.042-4.667 0-7l-13-1v9h9v1h-9v19h-8v-36Z" fill="#9E7B56"/><path d="M152.188 345.625c3.924 3.314 7.195 7.132 7.812 12.375.385 5.865-.028 9.75-3 15-5.245 5.483-9.6 5.916-16.965 6.098l-3.972-.036-2.073-.013c-1.663-.012-3.327-.03-4.99-.049l1-7h-2v-2l3-1 2 1v4c5.967-.609 11.625-1.625 16-6 .435-2.723.435-2.723.438-5.813l.12-3.144c-.77-4.193-2.105-5.58-5.558-8.043-2.948-.34-5.282-.44-8.188-.25-7.657.327-7.657.327-9.812-.75v-4c1.813-.625 1.813-.625 4-1l3 2v-2c14.38-1.826 14.38-1.826 19.188.625Z" fill="#9F7A53"/><path d="M344 167h1l1 79 8 2 1-4c.05 4.236.086 8.471.11 12.708.01 1.441.024 2.882.04 4.324.025 2.07.036 4.14.045 6.21l.032 3.777C355 274 355 274 353 276l-3-3c-1.296 1.066-1.296 1.066-1.063 3.563L349 279h-3c.141 1.605.288 3.209.438 4.813.08.893.162 1.786.246 2.707.25 2.607.25 2.607 1.316 5.48l-2 3h-2v-18l-2 1 .035 3.508.027 4.617.026 2.305c.018 4.309-.227 8.325-1.088 12.57h-1v-29l3-1-.007-2.295c-.027-9.63-.045-19.262-.055-28.892l-.003-2.316c-.023-23.513.14-46.999 1.065-70.497Z" fill="#C9C9CA"/><path d="M153 160h6l-1 2-4-1v41h-2v7l-2 1c-.298 3.162-.416 6.28-.479 9.453-.206 5.172-.206 5.172-2.013 7.324L146 228c-.727 3.108-.727 3.108-1 6h-1v-8h-2v-19l2-1c.656-2.527.656-2.527 1-5l-4-1h5v-37h6l1-3Z" fill="#ACAEAF"/><path d="M271 338h9l-1 30h17v7h-26c-.087-12.396.103-24.639 1-37Z" fill="#A37C54"/><path d="M317 280c.515 2.06 1.021 4.105 1.438 6.188L319 288l2 1c-5.2 6.656-10.36 12.756-17 18l-2.031 1.617c-3.595 2.78-7.23 5.226-11.219 7.399-1.813 1.02-3.517 2.146-5.25 3.296-9.788 6.127-20.165 10.472-31.5 12.688 1-3 1-3 4.176-4.797 1.375-.66 2.754-1.31 4.137-1.953 1.47-.71 2.938-1.424 4.406-2.14l2.207-1.077c8.141-4.055 15.567-8.932 22.797-14.431C294 306 294 306 297 305v-2a60.856 60.856 0 0 1 3.438-2.875c5.484-4.636 9.408-10.316 13.562-16.125.996-1.336 1.994-2.67 3-4Z" fill="#E4DFDA"/><path d="m178.625 340.875 2.602-.012 2.5.004 2.268.004C188 341 188 341 191 342c.688 2.063.688 2.063 1 4-13.633 2.296-13.633 2.296-20 2v6h13v7l-12 1v7l-3-2c-2.33.959-2.33.959-4 4-.338-3.708-.67-7.416-1-11.125-.095-1.047-.19-2.093-.29-3.172-.435-4.915-.847-9.763-.71-14.703 4.859-1.26 9.644-1.148 14.625-1.125Z" fill="#A07A54"/><path d="M317 350h2l4 8 .875-2.875C325 352 325 352 327 350c3.7 9.114 5.89 18.425 8 28h-10l-1-7-14-1v-1l1.934-.148 2.503-.227c.824-.07 1.648-.14 2.497-.21L319 368l1-2-6-1c-1.19-4.152-.79-6.387.938-10.313l1.152-2.675L317 350Z" fill="#9C7853"/><path d="M158 167h1l1 91 1-2h3l-1 54-4 1c-1.01-30.12-1.126-60.217-1.069-90.352.01-6.076.015-12.152.02-18.228.01-11.807.028-23.613.049-35.42Z" fill="#333B3B"/><path d="M302 242c-4.652 10.343-4.652 10.343-7.957 11.953-1.918.234-1.918.234-5.043.047l-1 10h-5l-1-1-.367 2.703-.508 3.547-.492 3.516c-.551 2.816-1.191 4.786-2.633 7.234l-2-1 .974-1.58c1.329-3.134 1.35-5.753 1.44-9.154l.117-3.926.094-4.09.117-4.137c.094-3.37.18-6.742.258-10.113 3.08-.87 6.164-1.718 9.25-2.563l2.645-.748 2.558-.693c.775-.215 1.55-.43 2.349-.65 2.388-.376 3.919-.093 6.198.654Z" fill="#9C7751"/><path d="M280 442v4l4 2c-11.594 2.418-23.028 2.23-34.813 2.125-1.964-.01-3.928-.02-5.892-.027-4.765-.022-9.53-.057-14.295-.098l4-2v-2l-3-2 2.994-.076c3.698-.095 7.395-.195 11.093-.296 1.594-.043 3.189-.085 4.783-.125 2.304-.059 4.608-.122 6.911-.187l2.129-.05c7.42-.218 14.653-1.399 22.09-1.266Z" fill="#E3E3E4"/><path d="m154 161 6 1-.49 2.213c-.463 2.532-.647 4.808-.668 7.374l-.03 2.699-.017 2.92-.03 3.106a5043.12 5043.12 0 0 0-.081 10.145l-.063 7.041c-.056 6.173-.105 12.346-.153 18.52-.05 6.3-.106 12.601-.161 18.902-.108 12.36-.21 24.72-.307 37.08h-1l-1-61-2 1c-.8-3.287-1.097-4.71 0-8h-2v-2h2v-41Z" fill="#CCCDCE"/><path d="M246 228c1.126 3.409 1 3.999-.375 7.625-5.48 10.075-13.369 17.194-24.316 20.484-6.708 1.41-13.582 1.19-20.404 1.152-2.361-.011-4.722 0-7.083.012-1.502 0-3.004-.003-4.506-.007l-2.136.012c-4.95-.048-4.95-.048-7.18-2.278l1-3 3.298.08c4.092.09 8.185.148 12.278.195 1.761.025 3.523.059 5.283.102 12.806.31 23.183-.36 33.578-8.752 4.705-4.5 8.48-9.375 10.563-15.625Z" fill="#DAD5CE"/><path d="m174 192 8 4c3.62.565 3.62.565 7.281.469l1.994.021c2.075.022 4.15.02 6.225.01 16.69-.074 16.69-.074 23.5 4.5 2.82 3.456 3.49 6.612 4 11-2-2-2-2-3.438-4.5-1.472-2.737-1.472-2.737-4.562-4.5-3.233-.288-3.233-.288-6.941-.238-1.403-.016-2.806-.032-4.21-.05a616.004 616.004 0 0 0-6.588-.017c-2.13.002-4.26-.026-6.39-.058l-3.846-.01C185 202 185 202 175 197v27h-1v-32Z" fill="#E5E3E1"/><path d="M244 345c1.604-.027 3.208-.046 4.813-.063l2.707-.035C254 345 254 345 257 346c1.391 9.217 1.391 9.217 0 12l5-1v-7l3-1 2-3c.488 7.198.488 7.198-1.75 10.875-4.418 4.173-8.067 4.396-14 4.25l-2.113-.027c-1.713-.024-3.425-.06-5.137-.098-1.09-3.27-.846-3.851 0-7a85.49 85.49 0 0 0 .063-4.75l-.028-2.422L244 345Z" fill="#A07C57"/><path d="M164 364h1v14l15-1-2 5 1.938.688C182 384 182 384 182.75 386.188c.292 3.284.315 6.516.25 9.812h-2l-1-5h-3v5h-2l-1-9h-4v9h-3v-9h-3c-.17-1.416-.335-2.833-.5-4.25l-.281-2.39c-.365-3.931-.13-7.7.281-11.61l.281-2.703L164 364Z" fill="#202725"/><path d="M306 210c9.513 1.605 17.01 6.512 23 14 3.014 4.7 4.623 9.596 6 15l1 3-1 2a144.19 144.19 0 0 0-.063 6.398l.024 3.891.06 6.129c.018 1.973.03 3.945.041 5.918l.036 3.58c-.082 2.577-.333 4.64-1.098 7.084l-4-1 .048-3.361c.054-4.145.088-8.29.117-12.435.015-1.788.035-3.577.061-5.365.037-2.582.054-5.163.067-7.745.015-.79.03-1.58.047-2.394.003-9.172-3.597-17.66-9.902-24.36-4.342-3.93-9.247-6.68-14.438-9.34v-1Z" fill="#252C41"/><path d="M348 162h5l1 38 4 1h-4v2c-3.875-.875-3.875-.875-5-2l-2 3 1-42Z" fill="#C8C9CA"/><path d="M288 234a141.4 141.4 0 0 1-5 5h-2c-.738 4.624-1.12 9.065-1.14 13.746l-.06 3.787a649.643 649.643 0 0 0-.054 7.797c-.148 7.564-.679 12.868-5.746 18.67l-1.887 2.172c-4.942 4.33-9.884 6.773-16.113 8.828 1-3 1-3 2.672-3.992l2.078-.883c6.635-3.14 9.996-7.734 13.25-14.125 1.188-3.568 1.156-7.036 1.21-10.777.03-1.318.058-2.636.087-3.994.041-2.085.078-4.17.104-6.254.028-2.022.075-4.043.122-6.065l.06-3.652c.454-3.547 1.274-5.423 3.417-8.258 3.435-2.29 4.985-2.178 9-2Z" fill="#1A223A"/><path d="M146 163h5v36h-3v7l-2-1v-4h-5v-1h5v-37Z" fill="#D0D1D2"/><path d="M257 221h3l-.875 1.734c-4.64 9.344-6.155 17.979-7.125 28.266h-1l-.438-3.625A212.427 212.427 0 0 0 249 237c-4.14 3.15-6.29 5-8 10-1.809 2.412-2.725 2.93-5.688 3.688L233 251l1.137-1.285A372.039 372.039 0 0 0 239 244l1.371-1.566c3.804-4.729 5.221-9.943 6.832-15.739C248 224 248 224 249 223l7-1 1-1Z" fill="#55422E"/><path d="M293 308v3l4 1c-12.266 8.316-27.997 18.42-43 20 1-3 1-3 4.176-4.797 1.375-.66 2.754-1.31 4.137-1.953 1.466-.708 2.93-1.419 4.394-2.133l2.206-1.075c7.314-3.651 14.204-7.837 20.564-12.976C291 308 291 308 293 308Z" fill="#E3D9CE"/><path d="M136 353c8 0 8 0 10.5 1.313 2.418 4.331 1.801 8.837 1.5 13.687-4.202 2.346-6.011 3-11 3l-1-18Z" fill="#B9BABA"/><path d="M367 344h8l-1 18h-2l-1 3-2 3h-2l-1 3c-.029-3.937-.047-7.875-.063-11.813l-.025-3.392-.01-3.252-.016-3C366 347 366 347 367 344Z" fill="#9F7A55"/><path d="m202 305 3 2.375c9.992 7.459 20.701 13.752 31.947 19.113 2.727 1.304 4.898 2.357 7.053 4.512-6.209-.54-11.31-2.523-17-5l-2.594-1.094C216.603 321.51 209.324 317.31 202 313v-8Z" fill="#E4D9D0"/><path d="M294 384c3.375-.125 3.375-.125 7 0 2 2 2 2 2.125 4.625L303 391l-6 1v4h-7l-.313-1.938L289 392l-3-1v5h-2v-11c7.75-.125 7.75-.125 10 1v-2Z" fill="#4D5253"/><path d="M271 338h9l-1 29h-1l-.402-3.36-.536-4.39-.263-2.21c-.529-5.104-.529-5.104-1.799-10.04l-3-1 .035 2.605A242.044 242.044 0 0 1 271 373h9c-3.991 1.996-5.7 2.195-10 2-.115-12.38.104-24.65 1-37Z" fill="#977756"/><path d="M197 384c6.75 0 6.75 0 10 3l1-2h3v11l-4-1-1 1c-3.003.142-5.992.042-9 0v-12Z" fill="#C8CBCD"/><path d="M138.75 349.688c3.733.026 5.038.182 8.313 2.187 3.068 3.365 3.145 5.512 3.25 10l.113 3.18c-.523 3.615-1.61 4.707-4.426 6.945-3.522 1.458-7.24 1.017-11 1-.363-3.645-.714-7.291-1.063-10.938l-.314-3.154-.283-2.998-.27-2.777L133 351c1.64-1.64 3.495-1.25 5.75-1.313ZM136 353l1 18c7.478-.33 7.478-.33 11-3 .837-4.751.87-9.44-1.5-13.688-3.21-1.932-3.21-1.932-10.5-1.312Z" fill="#3D372E"/><path d="M350 364c2.375 2.13 3.537 3.863 4.563 6.875l.742 2.129L356 375l1.188 2.813C358 380 358 380 358 383h10v2c-10.832 2.398-10.832 2.398-16 2-2.86-2.86-1.991-10.537-2.063-14.332 0-2.89.018-5.778.063-8.668Z" fill="#B9BCBD"/><path d="M239 344h2l1 5 .625 2.688C243 354 243 354 242 356h-2c.675.52 1.35 1.042 2.047 1.578C244 360 244 360 243.953 363.234l-.703 3.516-.672 3.547L242 373l-5-1c-.058-3.542-.094-7.083-.125-10.625l-.05-3.027c-.035-5.189.072-9.497 2.175-14.348Z" fill="#A77B4F"/><path d="M305 384h13v12h-6l-.813-1.938c-1.074-2.393-1.074-2.393-4.187-3.062v5h-2v-12Z" fill="#929698"/><path d="M348 353c2.826 1.413 2.871 2.98 3.875 5.938 1.89 5.422 3.965 10.743 6.125 16.062l.734 2.707c1.09 2.59 1.09 2.59 4.086 3.219l3.305.387 3.32.425L372 382v-6h1v8l2 1c-3.01.934-3.867 1.044-7 0v-2h-10l-1.023-2.668-1.352-3.52-1.336-3.48A641.32 641.32 0 0 0 351 365l-1 5h-3l1-17Z" fill="#3B3830"/><path d="m130 369 3 1v4c2.272-.06 4.542-.149 6.813-.25l3.832-.14c3.426-.267 3.426-.267 5.18-2.657L150 369h2l-1 2.375c-1.119 2.468-1.119 2.468-1 4.625h-2v2c-3.867 1.266-7.732 1.112-11.75 1.063l-2.113-.014c-1.713-.012-3.425-.03-5.137-.049l1-7h-2v-2l2-1Z" fill="#A57C52"/><path d="M322 146h13v93c-2.198-4.396-2.236-7.503-2.135-12.257l.028-2.514c.034-2.738.082-5.476.13-8.213a5050.438 5050.438 0 0 1 .303-20.693c.081-5.101.15-10.202.22-15.303.14-10.007.293-20.014.454-30.02l-12-3v-1Z" fill="#A8ABAC"/><path d="M174 370h18v5c-8.64 2.514-17.088 2.184-26 2v-1h9l-1-6Z" fill="#A17C56"/><path d="M302 235c2.285 1.656 3.559 2.632 5 5 .582 4.293.975 9.05-1 13h-10a154.465 154.465 0 0 1 3.688-8.625c1.694-3.294 1.694-3.294.312-6.375l2-3Z" fill="#5B452E"/><path d="m347 337 1 3h6c2.911 6.26 5.67 12.5 8 19l1-7 3 2c.467 5.512-.261 9.783-2 15-2.195-2.729-3.642-5.227-4.875-8.5a454.586 454.586 0 0 0-4.875-12.125l-1.297-3.102L352 343l-11-1v-1l5-1 1-3Z" fill="#433D33"/><path d="M374 349h1v14l4 2-1 4h-3l.875 2.555 1.125 3.32 1.125 3.305C379 381 379 381 379 383l-6 1c-1.221-11.967-.565-23.097 1-35Z" fill="#423D35"/><path d="M244 345c1.604-.027 3.208-.046 4.813-.063l2.707-.035C254 345 254 345 257 346c.042 2.333.04 4.667 0 7-1 1-1 1-3.723 1.098l-3.34-.036-3.347-.027L244 354v-9Z" fill="#202523"/><path d="M147 285h2l1 13h-3v5h-2l-.438 2.813C144 309 144 309 143 312l-4-2c-.495-7.425-.495-7.425 1.938-10.25L143 298c.787-2.138.787-2.138 1-4h2l1-9Z" fill="#C1C3C4"/><path d="m298 310 1 2-1 3-3 1 2 4c-4.577 1.97-9.278 3.332-14.063 4.688l-2.431.72-2.354.666-2.125.612c-2.295.355-3.832.017-6.027-.686l3.254-1.574 4.308-2.113 2.135-1.03c4.808-2.37 9-5.087 13.303-8.283 1.654-1.02 3.316-2.03 5-3Z" fill="#A68562"/><path d="M246 228c1.126 3.409 1 3.999-.375 7.625-4.602 8.46-11.507 15.896-20.625 19.375h-3l-1-4 1.906-.629c9.538-3.433 15.72-8.837 21.094-17.371 1.29-2.76 1.29-2.76 2-5Z" fill="#D0CECB"/><path d="M279 319c-.168 1.809-.168 1.809-1 4-7.17 4.978-15.544 7.29-24 9 1-3 1-3 4.457-4.973a351.015 351.015 0 0 1 4.356-2.09c.725-.35 1.45-.702 2.197-1.064 1.359-.658 2.72-1.311 4.083-1.96a69.078 69.078 0 0 0 3.898-2.028C275 319 275 319 279 319Z" fill="#E2DBD4"/><path d="M154 216h1c.025 6.85.043 13.7.055 20.55.005 2.33.012 4.658.02 6.987.013 3.353.018 6.707.023 10.06l.015 3.14c0 5.2-.205 10.14-1.113 15.263l-2-1a1890.33 1890.33 0 0 1-.063-7.938l-.025-2.287c-.009-1.925.036-3.85.088-5.775l1-1c.04-1.666.043-3.334 0-5l-4 1v-3l5-1v-30Z" fill="#CFCECF"/><path d="m174 192 8 4c3.75.627 3.75.627 7.563.61l2.05.05c2.13.047 4.258.07 6.387.09 1.457.028 2.914.058 4.371.09 3.543.073 7.086.123 10.629.16v1l-29 1v2c-3.403-1.059-6.014-2.009-9-4v27h-1v-32Z" fill="#B9B1A7"/><path d="M341 160h4l-1 44h-1l-1-28h-1l-.184-1.793c-.54-5.106-.54-5.106-1.503-10.144L339 162l2-2Z" fill="#CBCCCC"/><path d="M345 160h1l.076 3.656c.094 4.46.194 8.92.296 13.379.044 1.933.085 3.866.125 5.8.058 2.772.122 5.545.187 8.317l.05 2.636c-.284 3.923-.284 3.923 1.266 7.212l2-2 1 3 3 1c.688 2.063.688 2.063 1 4l-3-1v-2h-2l-2 12h-1c-1.573-7.39-2.28-14.372-2.195-21.918l.008-2.98c.011-3.096.036-6.193.062-9.29.01-2.117.02-4.235.027-6.353A4192.9 4192.9 0 0 1 345 160Z" fill="#A8ABAB"/><path d="M214 384c4 1 4 1 5.25 3.063L220 389l1-5h3v12h-3c-1.688-2.5-1.688-2.5-3-5l-1 5h-3v-12Z" fill="#B0B3B4"/><path d="M252 384c4 1 4 1 5.25 3.063L258 389l1-5h3v12h-3c-1.688-2.5-1.688-2.5-3-5l-1 5h-3v-12Z" fill="#ACB0B1"/><path d="m292.188 231.938 2.73.027L297 232l1 2-8 1v2c-1.5 1.625-1.5 1.625-3 3l2 1-1 2c-2.563.625-2.563.625-5 1v2h-3c.125-3.25.125-3.25 1-7 3.063-2.438 3.063-2.438 6-4l-3-2c3.015-1.005 5.042-1.103 8.188-1.063Z" fill="#503E2B"/><path d="M164 176c3 4 3 4 3 7h-2v71h-1v-78Z" fill="#CECDCD"/><path d="M164 264h1l1 46 8 1c2.017.612 4.026 1.26 6 2v2c-2.292-.476-4.584-.956-6.875-1.438l-3.867-.808C166 312 166 312 164 311v-47Z" fill="#94785B"/><path d="m319 157 5 1v61l-7-4c3.75-1.125 3.75-1.125 6 0v-56h-4v-2Z" fill="#9B7E5E"/><path d="M188 384c1.89.258 1.89.258 4 1 1.047 1.742 1.047 1.742 1.75 3.875l.734 2.117C195 393 195 393 195 396h-3v-2h-5v2h-2c.6-4.195 1.575-8.01 3-12Z" fill="#B0B4B5"/><path d="M175 384h7c.982 4.053 1.082 7.839 1 12h-2l-1-5h-3v5h-2v-12Z" fill="#CBCFD0"/><path d="M317 350h2l3 13h-9c1.875-9.107 1.875-9.107 4-13Z" fill="#2B281F"/><path d="m234 384 2 3h-7v7h5v-3l-3-1h5v6l-3.875.188-2.18.105L228 396c-2.313-3.47-2.425-4.922-2-9 2.087-3.295 4.249-3.577 8-3Z" fill="#C8CCCD"/><path d="M274 384h8v3h-5v2h4v2h-4v3h5v2h-8v-12Z" fill="#B4B8B9"/><path d="M242 384h8v3h-5v2h4v2h-4v3h5v2h-8v-12Z" fill="#B3B7B8"/><path d="m274 275 4 2c-5.251 8.971-12.206 13.769-22 17 1-3 1-3 2.672-3.992l2.078-.883c6.67-3.156 9.887-7.773 13.25-14.125Z" fill="#2F343B"/><path d="M306 210c9.773 1.649 16.53 6.717 23 14l-2 4-1.5-2.063c-5.58-6.557-11.83-11.084-19.5-14.937v-1Z" fill="#303437"/><path d="M207 338c2.02 2.406 2.02 2.406 3.813 5.5l1.832 3.094L214 349h-3a116.744 116.744 0 0 1-4-5l-2-1v-3h-7c3.136-1.859 5.364-2.57 9-2Zm-2 6 2 1-2 15h-1c-.027-2.48-.047-4.958-.063-7.438l-.025-2.142c-.009-1.807.036-3.614.088-5.42l1-1Z" fill="#8E7253"/><path d="M222.61 319.688c4.008 1.551 7.807 3.374 11.64 5.312l2.18 1.078c5.316 2.668 5.316 2.668 7.57 4.922-6.198-.539-11.306-2.574-17-5l-2.742-1.004C222 324 222 324 221 322l-3-2c2-1 2-1 4.61-.313Z" fill="#E8DDD3"/><path d="M356 299c2 1 2 1 4 3 .597 2.757.6 5.242 0 8-1.938 1.625-1.938 1.625-4 3-.81 3.102-.81 3.102-1 6h-1v-8h2l-1-1.688c-1.16-2.68-1.297-4.418-1-7.312l2-3Z" fill="#848989"/><path d="M279 246h2c1.979 24.26 1.979 24.26-3 34l-2-1 .974-1.58c1.329-3.134 1.35-5.753 1.44-9.154l.117-3.926.094-4.09.117-4.137c.094-3.37.18-6.742.258-10.113Z" fill="#856F58"/><path d="M216 199c3.137.933 4.716 1.634 6.75 4.25 1.338 2.944 1.878 5.548 2.25 8.75-2-2-2-2-3.438-4.5-1.472-2.737-1.472-2.737-4.562-4.5a89.912 89.912 0 0 0-7.293-.414l-2.14-.059c-2.251-.06-4.503-.106-6.755-.152-1.528-.038-3.056-.077-4.583-.117-3.743-.096-7.486-.18-11.229-.258v-1h31v-2Z" fill="#CDBFB2"/><path d="M331 384h8v3h-6v2h5v2h-5v3h6v2h-8v-12Z" fill="#B8BDBE"/><path d="M371.563 341.813c.805.17 1.61.342 2.44.519C376 343 376 343 377 345c.04 2.333.043 4.667 0 7l-2 1v-9h-8l-2 17h-1c-.027-2.23-.046-4.458-.063-6.688l-.035-3.761c.084-3.032.242-5.648 1.098-8.551 2.598-1.3 3.76-.813 6.563-.188Z" fill="#2C281E"/><path d="M148 381c.043 1.666.04 3.334 0 5-1 1-1 1-4.563 1.188-4.396-.04-8.22-.983-12.437-2.188l1-2c3.09-.633 3.09-.633 6.938-1.125l3.84-.508C146 381 146 381 148 381Z" fill="#B2B5B6"/><path d="M151 338h1v6c-3.031 1.01-4.744 1.05-7.887.879l-2.842-.147-2.958-.17-2.995-.158c-2.44-.13-4.879-.264-7.318-.404v-1h6l1-4v2l2.266-.035c.984-.01 1.97-.018 2.984-.027l2.953-.036c2.455.086 4.459.39 6.797 1.098l1-4Z" fill="#36352F"/><path d="M358 413v3c-1.969 1.605-1.969 1.605-4.5 3.188l-2.531 1.605L349 422l-.875-1.938c-.953-2.214-.953-2.214-3.125-3.062 3.787-4.355 7.444-4.126 13-4Z" fill="#E4E5E6"/><path d="M324.563 384.938 328 385v2h-5v2l5 1a88.406 88.406 0 0 1 1 5c-1 1-1 1-4.563 1.063L321 396l-1-3 6 1v-3l-5-1c-.563-1.938-.563-1.938-1-4 1-1 1-1 4.563-1.063Z" fill="#BCBFC0"/><path d="M295 385c2.333-.042 4.667-.04 7 0 1 1 1 1 1.063 3.563L303 391l-6 1v4h-2v-11Z" fill="#D3D7D8"/><path d="M148 225c2.476 3.715 2.752 7.682 2 12-1.938 2.5-1.938 2.5-4 4h-1c-1.12-5.49-.792-8.834 1-14h2v-2Z" fill="#CDCECE"/><path d="M134 350c8.836-.618 8.836-.618 13.063 1.625 2.37 2.906 2.785 4.649 2.937 8.375-.438 2.875-.438 2.875-1 5h-1l-1-10-13-2v-3Z" fill="#443F35"/><path d="M181 201c5.054.044 10.107.114 15.161.208 1.719.028 3.438.049 5.156.063 2.473.021 4.945.068 7.417.12l2.324.003c3.656.1 5.573.307 8.459 2.644L221 206l-1.872-.433c-8.148-1.7-16.016-1.8-24.315-1.692A1768.278 1768.278 0 0 0 181 204v-3Z" fill="#A08160"/><path d="M265 330c-2.128 2.34-4.116 3.707-7 5l-1-1-3.063 1c-3.692 1.07-7.09 1.157-10.937 1l1-4 2.16.105c5.814.165 14.132-3.674 18.84-2.105Z" fill="#242D2E"/><path d="m223 253-2 3c-2.012.328-2.012.328-4.688.25l-3.183-.078A1424.42 1424.42 0 0 1 209 256l-2.817-.111c-6.729-.268-13.456-.568-20.183-.889v-1l2.814-.076c3.44-.095 6.88-.194 10.32-.296 1.49-.044 2.98-.085 4.47-.125 2.14-.058 4.28-.122 6.42-.187l3.903-.11c7.98-.534 7.98-.534 9.073-.206Z" fill="#E3E3E1"/><path d="M156 208h1v28h-2c-.226-3.916-.428-7.833-.625-11.75l-.195-3.367-.157-3.242-.158-2.984c.14-2.767.71-4.312 2.135-6.657Z" fill="#C4C5C6"/><path d="M208 319c4.948-.495 7.867.687 12.098 2.977 2.233 1.201 4.529 2.133 6.902 3.023v1c-7.391-.408-13.998-1.585-21-4l2-1v-2Z" fill="#917B62"/><path d="M314 384h4v12h-3c-1.813-2.063-1.813-2.063-3-5 .813-3.813.813-3.813 2-7Z" fill="#7C8182"/><path d="m403 355 1 2h2c.625 3.375.625 3.375 1 7-2 2-2 2-4.625 2.125L400 366v-2l-2-1 5-8Z" fill="#D9DADB"/><path d="M342 277h2c2.444 4.889 1.056 11.852 0 17l-1-2h-2c-.027-2.312-.046-4.625-.063-6.938l-.035-3.902C341 278 341 278 342 277Z" fill="#B7B8B8"/><path d="M164 384h9v3h-3v9h-3v-9h-3v-3Z" fill="#AFB3B4"/><path d="M191 339c1.5 1.313 1.5 1.313 3 3v3h2a324.539 324.539 0 0 1 1 30h-1l-2-28-2 1c-2.125-.938-2.125-.938-4-2l3-1v-6Z" fill="#3A3123"/><path d="M203 211h1l1 17 13 1-1 2c-2.363.555-2.363.555-5.313.875l-2.925.367C206 232 206 232 203.629 230.555c-2.418-3.793-1.834-6.95-1.379-11.305.066-.793.131-1.586.2-2.402.164-1.951.354-3.9.55-5.848Z" fill="#383125"/><path d="M268 343h2v31h-1v-20h-2a757.916 757.916 0 0 1-.063-4.938l-.035-2.777C267 344 267 344 268 343Z" fill="#23221C"/><path d="M356 336c.695 2.031.695 2.031 1.125 4.5.354 3.04.354 3.04 1.875 5.5.04 1.666.043 3.334 0 5-2.165-2.165-2.44-3.2-3.25-6.063-.68-2.148-.68-2.148-1.75-3.937-3.078-1.14-3.078-1.14-6-1l1-4c3.01-.934 3.867-1.044 7 0Z" fill="#AAADAE"/><path d="M146 332c2.5 1.563 2.5 1.563 5 4 .313 3.75.313 3.75 0 7-5.75-1.625-5.75-1.625-8-5 1.345-4.345 1.345-4.345 3-6Z" fill="#B3B6B6"/><path d="M208 385h3v11l-4-1c-2.187.38-2.187.38-4 1l2-2 .5-3.5c.5-3.5.5-3.5 2.5-5.5Z" fill="#7F8485"/><path d="M123 372h2l1 12h-5c-1.124-3.304-.896-5.05.438-8.25l.87-2.14L123 372Z" fill="#AEB2B3"/><path d="M194 369c.042 2.333.04 4.667 0 7-1 1-1 1-3.285 1.098l-2.778-.036-2.785-.027L183 377v-1l9-1v-5h-18v-1c2.395-.196 4.79-.382 7.188-.563l2.04-.17c3.79-.277 7.09-.232 10.772.733Z" fill="#76624A"/><path d="M305 357c1.192 3.455.796 5.555-.313 9l-.8 2.563A50.29 50.29 0 0 1 301 375h6v1h-9c.666-4.41 2.266-8.266 4.063-12.313l.853-1.955c.69-1.579 1.387-3.156 2.084-4.732Z" fill="#907455"/><path d="M237 386v10h-1v-6l-2 1v3h-5v-7c6.875-1 6.875-1 8-1Z" fill="#3D4244"/><path d="M176 355h7v6l-10-1 1-3h2v-2Z" fill="#A47C52"/><path d="m122.82 382.805 3.305.07 3.32.055L132 383c-1.392 2.784-3.156 2.979-6 4v2l-4 1-4-5c2-2 2-2 4.82-2.195Z" fill="#2F3637"/><path d="m270 336 10 1v1h-9v17h-1v-12l-4 3-1-6 1 2h3l-1-3 2-3Z" fill="#3B3326"/><path d="M354 280v13l-2 1c-1.134 2.017-1.134 2.017-2 4-.081-2.25-.14-4.5-.188-6.75l-.105-3.797c.215-2.535.75-7.453 4.293-7.453Z" fill="#939797"/><path d="M279 239h2l-.48 3.06c-.486 3.684-.72 7.256-.836 10.967l-.127 3.897-.12 4.014-.13 4.095A4896.2 4896.2 0 0 0 279 275h-1c-.025-4.966-.043-9.932-.055-14.899-.005-1.69-.012-3.381-.02-5.072-.013-2.425-.018-4.85-.023-7.275l-.015-2.304c0-1.817.051-3.634.113-5.45l1-1Z" fill="#202629"/><path d="M184 145v1c-2.208.48-4.416.96-6.625 1.438l-3.727.808A209.951 209.951 0 0 1 164 150v-4c6.7-.701 13.263-1.11 20-1Z" fill="#766C5E"/><path d="M284 385h7l-1 2-4-1v4l5 1 1 5h-2l-.313-1.938L289 392l-3-1v5h-2v-11Z" fill="#D1D5D6"/><path d="m292.188 231.938 2.73.027L297 232l1 2-8 1v2l-4 2-2-2 3-2-3-2c3.015-1.005 5.042-1.103 8.188-1.063Z" fill="#564B3D"/><path d="M230 350h1v25h-6l2-5c2 1 2 1 3 2v-22Z" fill="#836C51"/><path d="M397 365h1c.043 1.666.04 3.334 0 5l-1 1 2 1-1 4-2-1v-2c-3.4 1.133-4.053 2.125-6 5 0-3.82 1.233-5.113 3.438-8.188l1.933-2.73L397 365Z" fill="#D5D7D7"/><path d="M164 176c3 4 3 4 3 7h-2v25h-1v-32Z" fill="#D1D5D6"/><path d="M374 371c2 1 2 1 2.852 2.996l.773 2.442c.26.803.52 1.606.79 2.433C379 381 379 381 379 383h-5v-12Z" fill="#BABCBD"/><path d="M322 384c6.75-.125 6.75-.125 9 1v11h-1v-5l-7-2v-2h5v-2h-6v-1Z" fill="#3D4344"/><path d="M149 360h1c.477 7.154.477 7.154-1.375 10.438-3.981 2.37-8.063 2.388-12.625 2.562l1-3 3.875-.438c2.382-.268 3.97-.484 6.125-1.562.685-1.888.685-1.888 1.125-4.063l.508-2.222L149 360Z" fill="#2F2D25"/><path d="M266 325v2l2 1c-1.957.67-3.916 1.336-5.875 2l-3.305 1.125C256 332 256 332 254 332c1-3 1-3 2.996-4.168l2.442-1.02 2.433-1.042C264 325 264 325 266 325Z" fill="#D0CAC4"/><path d="M284 209c14.781-.185 14.781-.185 21 1l-6 3v-2l-1.758.29c-5.003.71-8.482.785-13.242-1.29v-1Z" fill="#E2DAD3"/><path d="M339 389h6v3c-4.177 1.591-7.532 2.213-12 2v-3h6v-2Z" fill="#585E5F"/><path d="M283 384h8v1h-7v11l-2-2c-2.584-.167-2.584-.167-5 0v-3h4l2-7Z" fill="#3F4546"/><path d="m148 378 2 1c-4.613 3.79-8.21 4.106-14 4.23-2.344-.27-3.958-1.077-6-2.23l3.43-.402 4.445-.536 2.262-.263c4.058-.432 4.058-.432 7.863-1.799Z" fill="#3F3A30"/><path d="m215 354 4 3-1 2-2-1v10c-2.092-2.79-3.576-4.932-5-8l2-1a78.037 78.037 0 0 0 2-5Z" fill="#947656"/><path d="M185.625 289.875 188 290c.688 2.313.688 2.313 1 5-1.438 1.813-1.438 1.813-3 3-1.5-1.375-1.5-1.375-3-3v-2l-2-1c2-2 2-2 4.625-2.125Z" fill="#E4E5E4"/><path d="M288 234c-2.981 3.23-4.777 4.98-9 6-1.284 1.984-1.284 1.984-2 4-1-3-1-3 .25-5.563 3.155-4.394 5.602-4.666 10.75-4.437Z" fill="#33383B"/><path d="m271 213 1 2c-4.364 4.637-9.264 9.132-15 12 2.772-6.212 7.996-10.907 14-14Z" fill="#DCD4CC"/><path d="m332 424 3 1-1 2 2 1v2l-6 2-3-3 2-3h3v-2Z" fill="#E6E7E7"/><path d="m318 385 1 4 7 2v3l-2.875-.125c-3.227-.225-3.227-.225-5.125 2.125v-11Z" fill="#373D3E"/><path d="M244 345h10v1l-7 1-1 6h8v1h-10v-9Z" fill="#332C1F"/><path d="M312 300v2h-2l-.125 2.313C309 307 309 307 306.125 308.875 303 310 303 310 300 309c1.62-1.506 3.246-3.005 4.875-4.5l2.742-2.531C310 300 310 300 312 300Z" fill="#A78A6D"/><path d="M194 303c2.763.523 5.326 1.109 8 2l1 6c-3 0-3 0-4.605-1.496l-1.583-1.942-1.605-1.933C194 304 194 304 194 303Z" fill="#E5E5E5"/><path d="M188 291c2 1.313 2 1.313 4 3v3l-3 1c-.733 2.015-.733 2.015-1 4l-1.813-2.313c-1.657-2.035-3.29-3.885-5.187-5.687l2-1v2l4 2 1-6Z" fill="#E1D7CD"/><path d="m155 277 4 1c.08 1.624.14 3.25.188 4.875l.105 2.742L159 288l-3 2-1-13Z" fill="#B6B8B9"/><path d="M306 385h5l-4 1v3h4v2h2l1 5-3-1-1-3-3-1-1 4v-10Z" fill="#CBCFD1"/><path d="M264 385h8v2h-3v9h-2v-9h-3v-2Z" fill="#D3D6D7"/><path d="m350 364 2 1c.45 2.363.45 2.363.688 5.313l.261 2.925c.046 2.51-.198 4.385-.949 6.762-2.143-3.477-2.213-6.212-2.125-10.25l.055-3.266L350 364Z" fill="#BFC2C3"/><path d="M303 358h2c-1.355 4.218-2.902 8.294-4.625 12.375l-1.352 3.21L298 376h-1v-7h2l.875-3.25c.853-2.844 1.689-5.185 3.125-7.75Z" fill="#3A2E1D"/><path d="M124 344h18v1h-6l-1 2v-2h-2v2l-8-2v8h-1v-9Z" fill="#8F7354"/><path d="M246 228c.809 2.337 1.124 3.61.363 6-2.053 3.908-3.956 7.08-7.363 10l-2-2 2.25-2.5c2.975-3.542 4.803-7.317 6.75-11.5Z" fill="#C1BFBB"/><path d="m199 387 5 1v5l-5 1v-7Z" fill="#34393A"/><path d="m234 384 2 3h-7v5l-3 1c-.362-5.429-.362-5.429 1.188-7.875 2.451-1.522 3.98-1.56 6.812-1.125Z" fill="#ADB1B2"/><path d="m205 351 3 3c-.277 2.664-.277 2.664-1 6-.264 2.787-.408 5.58-.563 8.375l-.13 2.23A2067.4 2067.4 0 0 0 206 376h-1v-25Z" fill="#3E3323"/><path d="M266 346h1c.615 7.262.615 7.262-2.5 11l-2.5 2v-9l3-1 1-3Z" fill="#8C7256"/><path d="M353 302h1l2 9h-2v10l-2-1c-.027-2.625-.047-5.25-.063-7.875l-.025-2.262c-.025-5.636-.025-5.636 1.088-7.863Z" fill="#CDCECF"/><path d="M223 210c2 2 2 2 2.313 5.25-.331 3.967-1.319 6.343-3.313 9.75h-3l1-4h3v-11Z" fill="#94795A"/><path d="M355 368h2v2h2l.55 1.898.762 2.477.739 2.46c.863 2.497.863 2.497 3.949 4.165h-5c-4.408-8.262-4.408-8.262-5-13Z" fill="#8C7459"/><path d="m412 337 2 1c.625 2.563.625 2.563 1 5l2-1v3c-2.313.625-2.313.625-5 1l-3-2 3-7Z" fill="#D5D6D6"/><path d="m230 324 14 6c-4.528 1.132-5.962.6-10.25-.938l-3.266-1.152L228 327l2-1v-2Z" fill="#CFC7BF"/><path d="M196 319c1.627.282 3.251.576 4.875.875l2.742.492C206 321 206 321 208 323c-4.625 2.125-4.625 2.125-8 1v-3h-4v-2Z" fill="#28261D"/><path d="m164 311 17 4-1 2c-5.451-.568-9.953-1.825-15-4l-1-2Z" fill="#2A271E"/><path d="M141 302h4l-1 7h-4c-.043-2-.04-4 0-6l1-1Z" fill="#2B3233"/><path d="m354 302 5 1v6h-4l-1-7Z" fill="#2E3334"/><path d="M345 277h1l.184 2.52.253 3.293.247 3.269c.218 2.978.218 2.978 1.316 5.918l-2 3h-2c-.027-2.813-.047-5.625-.063-8.438l-.025-2.431c-.009-2.044.036-4.088.088-6.131l1-1Z" fill="#CCCDCD"/><path d="M322 146h13v4c-1.606-.283-3.21-.577-4.813-.875l-2.707-.492C325 148 325 148 322 146Z" fill="#95826D"/><path d="m131 125 4 2-1 5-3-1-1-2-4 3-2-1 7-6Z" fill="#E7E7E7"/><path d="m214 384 4 1v3h-2v8h-2v-12Z" fill="#B6BABC"/><path d="M96 355c2.59 1.295 2.96 2.327 4 5 .125 2.75.125 2.75 0 5l-6-2 1-4h2l-1-4Z" fill="#D5D7D8"/><path d="M287 321v2c-2.08.7-4.164 1.385-6.25 2.063l-3.516 1.16c-3.035.73-4.391.896-7.234-.223 5.601-3.128 10.448-5 17-5Z" fill="#897763"/><path d="M133 132h2v3l2 1-5.86 2.148c-2.115.842-4.12 1.805-6.14 2.852.957-1.126 1.916-2.25 2.875-3.375l1.617-1.898A75.822 75.822 0 0 1 133 132Z" fill="#2E3535"/><path d="M221 318c5.594 1.157 9.519 2.415 14 6v2c-5.235-1.44-9.63-3.817-14-7v-1Z" fill="#A78A6C"/><path d="M295 315h3v2h11v1l-12 2-3-4 1-1Z" fill="#967755"/><path d="M147 285h2l1 13h-3v-13Z" fill="#8E9293"/><path d="M242 240c1 2 1 2 .25 4.438-1.226 2.512-2.02 3.91-4.25 5.562-2.688.688-2.688.688-5 1l1.207-1.39c2.704-3.133 5.373-6.249 7.793-9.61Z" fill="#625546"/><path d="M152 235h1v11l-4 1c.114-1.626.242-3.25.375-4.875.07-.905.14-1.81.21-2.742C150 237 150 237 152 235Z" fill="#B4B6B7"/><path d="m186 157-1 2h-9v9h-1v-10c7.429-2.429 7.429-2.429 11-1Z" fill="#A68869"/><path d="M306 153c5.115-.209 9.13.467 14 2 1.662.354 3.328.696 5 1v2c-4.784-.487-8.557-1.13-13-3a127.16 127.16 0 0 0-6-1v-1Z" fill="#E3D7CC"/><path d="M165 388c2 2 2 2 2.125 5.125L167 396l-1-2a101.168 101.168 0 0 0-6-2v-3c2.375-.625 2.375-.625 5-1Z" fill="#5D6364"/><path d="m183 387 4 1-2 8h-2c-1.125-6.75-1.125-6.75 0-9Z" fill="#343A3A"/><path d="M317 350h2l1 7-1-2h-2v5l-3-1 3-9Z" fill="#3C3427"/><path d="m268 285 1 3-12 6v-3l1.645-.805 2.168-1.07 2.144-1.055c2.255-1.136 2.255-1.136 5.043-3.07Z" fill="#41403C"/><path d="M341 160c2.063.438 2.063.438 4 1h-2l1 5-3 2-2-2c.556-4.556.556-4.556 2-6Z" fill="#BCBDBD"/><path d="M306 437c4.75.75 4.75.75 7 3l-9 2 2-5Z" fill="#E6E5E6"/><path d="M196 385h1v11h-2c-2.092-4.43-2.092-4.43-1.625-7.313L194 387l1 1 1-3Z" fill="#373D3E"/><path d="M303 386v5l-6-1v-4c3.75-1.125 3.75-1.125 6 0Z" fill="#878C8D"/><path d="M393 373h3l2 4-3 3-4-2 2-5Z" fill="#E7E7E8"/><path d="M150 358h1c.63 9.996.63 9.996-2 14.188L147 374l-5-1 1.813-.813c2.275-1.235 3.569-2.173 5.187-4.187.576-2.502.576-2.502.688-5.188l.199-2.73L150 358Z" fill="#82694D"/><path d="M314 338c1.79-.08 3.583-.14 5.375-.188l3.023-.105L325 338c2 3 2 3 2 7h-2l-1-5-10-1v-1Z" fill="#2C261A"/><path d="M314 278h3c-.63 3.219-1.78 5.508-3.563 8.25l-1.378 2.14L311 290c-1.214-3.642-.667-4.332.938-7.688l1.152-2.449L314 278Z" fill="#A28363"/><path d="m128 397 1 2h3l1 3h-2l-2 4c-1.625-1.688-1.625-1.688-3-4 .813-2.75.813-2.75 2-5Z" fill="#E6E6E6"/><path d="M304 385h1v11c-4-3-4-3-5-5h3l-.063-2.438C303 386 303 386 304 385Z" fill="#2E3435"/><path d="M326 350c1.594 2.39 2.653 4.308 3.688 6.938l.824 2.027c.567 2.363.248 3.754-.512 6.035-3.569-4.655-3.682-9.348-4-15Z" fill="#886F54"/><path d="M151 338h1v6c-3.67 1.223-6.34.88-10.188.563l-3.855-.31L135 344v-1l15-1 1-4Z" fill="#50483C"/><path d="M345 324h2c3.077 6.4 3.077 6.4 2.688 9.438L349 335l-1-3-2.125-1.938L344 328c.25-2.25.25-2.25 1-4Z" fill="#2D3435"/><path d="M208 319h5v2l3 1v2l-10-2 2-1v-2Z" fill="#947351"/><path d="M182 284c3.161 1.37 3.993 1.99 6 5h-8c.875-3.875.875-3.875 2-5Z" fill="#72706B"/><path d="M302 235c4.923 4.308 4.923 4.308 5.313 7.813L307 245l-.875-1.938c-.953-2.214-.953-2.214-3.125-3.062l-1 2-2-4 2-3Z" fill="#5F4F3D"/><path d="M129 393c2.625.375 2.625.375 5 1l-1 3 2 1-2 2-6-5 2-2Z" fill="#262D2E"/><path d="M249 389c1.563 1.25 1.563 1.25 3 3-.313 2.188-.313 2.188-1 4l-1-2h-5v-3h4v-2Z" fill="#2E3436"/><path d="M292 385v5c-2.49 1.245-3.41.777-6 0v-4c4.875-1 4.875-1 6-1Z" fill="#8A8F90"/><path d="M146 344c5.044.445 7.444 2.61 11 6v2c-3.114-1.5-6.122-3.082-9-5v-2l-2-1Z" fill="#90775C"/><path d="M138 303h1l.25 3.25c.805 4.024 1.627 5.232 4.75 7.75-1.875.625-1.875.625-4 1l-2-2 1-2-2-1 1-7Z" fill="#293132"/><path d="M189 297c2 .25 2 .25 4 1l1 3-1 2-4-1c-.563-1.938-.563-1.938-1-4l1-1Z" fill="#E5E4E4"/><path d="m355 409 1 3c2.015.733 2.015.733 4 1-3.674 1.176-7.17 1.074-11 1 3.75-3.875 3.75-3.875 6-5Z" fill="#D3D5D6"/><path d="M175 384h7l-1 5h-4v-4l-2-1Z" fill="#85898A"/><path d="M380.063 382.938 383 383l-2 4h-2l-1 3h-1a128.624 128.624 0 0 1-1-6c1-1 1-1 4.063-1.063Z" fill="#2B3233"/><path d="M242 354h11v1h-9l-1 4-2 1-1-4h2v-2Z" fill="#906F4B"/><path d="M289 316c1.245 2.49.777 3.41 0 6l-8 1c1.464-4.392 3.978-4.88 8-7Z" fill="#A58665"/><path d="m205 311 8 2-1 3c-2.063.688-2.063.688-4 1l-3-6Z" fill="#E2DFDC"/><path d="M177 269h5l-1 9c-3.31-3.31-3.504-4.532-4-9Z" fill="#A48666"/><path d="M250 384c2 2 2 2 2.125 5.125L252 392l-2-1v-2h-5v-2h5v-3Z" fill="#242B2C"/><path d="m143 319 1 3-4 4-3-3c1.964-1.506 3.783-2.891 6-4Z" fill="#272E2E"/><path d="m324 375 1 3h10v1l-7 1v2l-4-2v-5Z" fill="#26261F"/><path d="M125 358h1c.027 1.458.046 2.917.063 4.375l.035 2.46C126 367 126 367 125 369h-4l1-4h2l1-7Z" fill="#66625A"/><path d="m290 312-1 5h-3v-2h-2v-2c2-1 2-1 6-1Z" fill="#E5DFD9"/><path d="M166 311c5.22-.18 9.073.03 14 2v2l-14-3v-1Z" fill="#836D53"/><path d="M189 302c2.938.813 2.938.813 6 2l1 3c2 1.209 2 1.209 4 2l-1 2c-1.67-1.309-3.336-2.622-5-3.938l-2.813-2.214L189 303v-1Z" fill="#E2D5C9"/><path d="m302 242-3 6-5-5c3.067-1.862 4.597-2.215 8-1Z" fill="#917150"/><path d="m288 440-1 2c-2.563.625-2.563.625-5 1v2c-2.993-.998-3.948-1.752-6-4 4.053-.982 7.839-1.082 12-1Z" fill="#B8BBBB"/><path d="M217 390c2.063 1.688 2.063 1.688 4 4-.25 2.75-.25 2.75-1 5-1.5-1.125-1.5-1.125-3-3-.188-3.188-.188-3.188 0-6Z" fill="#252B2D"/><path d="M191 339c2.5 2.174 3.436 3.73 4 7l-3 2-4-2 3-1v-6Z" fill="#3D382E"/><path d="M144 335c2.5 1.813 2.5 1.813 5 4v3c-1.875-.313-1.875-.313-4-1l-2-3 1-3Z" fill="#A4A8A9"/><path d="m413 329 2 4-3 4-2-1c.75-4.75.75-4.75 3-7Z" fill="#242D2E"/><path d="M85 324c1.858 3.135 2.201 5.375 2 9h-2c-1.257-2.906-2-4.796-2-8l2-1Z" fill="#2B3132"/><path d="M140 301c2.063.438 2.063.438 4 1l-3 1-1 6h3v3l-4-2c-.098-6.152-.098-6.152 0-8l1-1Z" fill="#7D8283"/><path d="M236 243h3c-1.393 3.367-2.979 4.986-6 7 .75-4.75.75-4.75 3-7Z" fill="#D4D0CC"/><path d="M306 210c4.128.607 7.332 2.038 11 4l-2 2-9-5v-1Z" fill="#464644"/><path d="M167 101v3l-2 1v-3l2-1Zm-4 4h2l1 5c-1.938-.375-1.938-.375-4-1l-1-2h2v-2Z" fill="#E7E7E7"/><path d="M356 374c3 2 3 2 3.438 4 .375 2.207.375 2.207 2.625 3.25L364 382h-6c-1.257-2.906-2-4.796-2-8Z" fill="#312D23"/><path d="M164 364h1v14l-3-1 2-13Z" fill="#3E3425"/><path d="M160 364c2 1.188 2 1.188 4 3 .25 2.688.25 2.688 0 5l-2-3-3 2 1-7Z" fill="#25241C"/><path d="m218 317 3 2v2l1 2c-5.75-1.75-5.75-1.75-8-4l4-2Z" fill="#DDD3CB"/><path d="M183 296c2.648 2.578 4.944 4.916 7 8h-6l-1-8Z" fill="#A68665"/><path d="M272 284c0 3 0 3-1 5h-2v2h-6l1.688-1.25c2.474-1.873 4.896-3.803 7.312-5.75Z" fill="#887159"/><path d="M247 229h1c.22 3.846-.233 6.558-2 10l-3 2c.66-2.846 1.517-5.523 2.563-8.25l.816-2.14L247 229Z" fill="#594B3B"/><path d="m158 418 5 3c-2.565 2.565-4.477 2.54-8 3l2-2c.643-2.069.643-2.069 1-4Z" fill="#D4D5D5"/><path d="M363 404c1.938.313 1.938.313 4 1l1 3-3 1-3-3 1-2Z" fill="#E5E5E6"/><path d="m307 391 4 1 1 5-5-1v-5Z" fill="#404748"/><path d="m375 363 4 2-1 4h-3v-6Z" fill="#5A6162"/><path d="m136 353 4 1-1 1a235.648 235.648 0 0 0-1 7c-2-2-2-2-2.125-5.625L136 353Z" fill="#BEC1C2"/><path d="m317 280 1 4c-1.938 2.25-1.938 2.25-4 4l-2-1 5-7Z" fill="#E4D7CB"/><path d="m350 272 2 1v5l-3 1-1-6 2-1Z" fill="#A9ACAC"/><path d="M409 188h4l2 3-3 4-3-7Z" fill="#D0D3D3"/><path d="M279 157h1l1.367 6.055c.538 2.152.538 2.152 2.633 3.945h-4c-1-1-1-1-1.098-3.066l.036-2.496.027-2.504L279 157Z" fill="#917454"/><path d="M229 148c-1.5 1.563-1.5 1.563-4 3-2.774-.032-5.253-.496-8-1 3.9-2.6 7.474-2.15 12-2Z" fill="#AD9276"/><path d="m167 109 2 1c-2.353 2.724-4.625 3.814-8 5l-2-2c1.287-.697 2.58-1.382 3.875-2.063l2.18-1.16L167 109Z" fill="#383E3F"/><path d="m286 391 4 1-1 4h-3v-5Z" fill="#434849"/><path d="M191 338h4v7l-3-1-1-6Z" fill="#242219"/><path d="m254 330 1 3h-9c1.769-3.538 4.296-3 8-3Z" fill="#7B756B"/><path d="M290 317c2.217 1.109 4.036 2.494 6 4l-7 1 1-5Z" fill="#947553"/><path d="M333 312c-2.395 2.9-4.312 3.502-8 4l-1-2c3.135-1.858 5.375-2.201 9-2Z" fill="#27251C"/><path d="m324 222 4 1v4l-2 1-2-6Z" fill="#363D4E"/><path d="m323 97 4 2-5 5c0-4 0-4 1-7Z" fill="#E8E9EA"/><path d="M260 385h1v10l-3-1v-3h2v-6Z" fill="#DCE0E2"/><path d="M303 358h2c-1.09 3.775-1.908 6.47-5 9 .557-3.344 1.352-6.033 3-9Z" fill="#2D281C"/><path d="M215 352h2v2l4 1v4h-2l-4-7Z" fill="#2B2A22"/><path d="M351 342c3.092 2.53 3.91 5.225 5 9h-2c-2.432-3.367-3-4.734-3-9Z" fill="#8D7458"/><path d="m143 335 1 3 2 2-5 1c.875-4.875.875-4.875 2-6Z" fill="#B4B7B8"/><path d="m295 307 3 1v3h-5v-3l2-1Z" fill="#E6E5E5"/><path d="M225 267c-2.25 1.625-2.25 1.625-5 3-2.313-.813-2.313-.813-4-2 3.426-1.618 5.38-2.34 9-1Z" fill="#987651"/><path d="M248 219h2l-2 10-2-2c.242-1.945.242-1.945.875-4.125l.617-2.195L248 219Z" fill="#978777"/><path d="M194 153h9l-3 3-6-2v-1Z" fill="#A58360"/><path d="M164 147h7c-1.25 1.5-1.25 1.5-3 3h-4v-3Z" fill="#A08466"/><path d="M124 141c0 3.576-1.088 5.053-3 8l-3-2 6-6Z" fill="#323939"/></svg>